<svg width="32.000000" height="32.000000" viewBox="0 0 28 32" fill="#000000" xmlns="http://www.w3.org/2000/svg" xmlns:xlink="http://www.w3.org/1999/xlink">
	<rect id="ic32-chat" width="32.000000" height="32.000000" fill="#FFFFFF" fill-opacity="0"/>
	<path id="Icon" d="M11.1345 23.9999L4.83301 29.0411C3.95996 29.7395 2.66675 29.118 2.66675 27.9999L2.66675 6.66663C2.66675 4.45746 4.45752 2.66663 6.66675 2.66663L25.3335 2.66663C27.5425 2.66663 29.3335 4.45746 29.3335 6.66663L29.3335 19.9999C29.3335 22.2091 27.5425 23.9999 25.3335 23.9999L11.1345 23.9999ZM9.83374 21.6255L5.3335 25.2258L5.3335 6.66663C5.3335 5.93024 5.93042 5.33331 6.66675 5.33331L25.3335 5.33331C26.0698 5.33331 26.6667 5.93024 26.6667 6.66663L26.6667 19.9999C26.6667 20.7363 26.0698 21.3333 25.3335 21.3333L10.6667 21.3333C10.364 21.3333 10.0703 21.4363 9.83374 21.6255Z" clip-rule="evenodd"  fill-opacity="1.000000" fill-rule="evenodd"/>
</svg>
