<svg width="32.000000" height="32.000000" viewBox="0 0 28 32" fill="#000000" xmlns="http://www.w3.org/2000/svg" xmlns:xlink="http://www.w3.org/1999/xlink">
	<rect id="ic32-notification" width="32.000000" height="32.000000" fill="#FFFFFF" fill-opacity="0"/>
	<path id="Icon" d="M6.6665 26.6667C5.72754 26.6667 5.09961 25.7306 5.41309 24.8782L5.47412 24.7371L7.01465 21.656C7.59766 20.4896 7.92944 19.2155 7.98975 17.916L8 17.482L8 13.3334C8 9.36933 10.8831 6.07865 14.6667 5.44398L14.6665 4.00008C14.6665 3.2637 15.2637 2.66675 16 2.66675C16.7363 2.66675 17.3333 3.2637 17.3333 4.00008L17.3342 5.44421C21.0125 6.06178 23.8391 9.18905 23.9934 13.0047L24 13.3334L24 17.482C24 18.7861 24.2732 20.074 24.8003 21.2633L24.9854 21.656L26.5259 24.7371C26.9458 25.577 26.3894 26.5574 25.4868 26.6582L25.3333 26.6667L18.6665 26.6667C18.6665 28.1395 17.4727 29.3334 16 29.3334C14.5271 29.3334 13.3333 28.1395 13.3333 26.6667L6.6665 26.6667ZM10.6731 13.0672C10.8118 10.2454 13.1436 8.00008 16 8.00008C18.9456 8.00008 21.3333 10.3879 21.3333 13.3334L21.3333 17.482L21.3423 17.9471C21.4084 19.65 21.8364 21.3212 22.6001 22.8486L23.1758 24.0001L8.82397 24.0001L9.39966 22.8486L9.59961 22.4285C10.3022 20.8759 10.6665 19.1897 10.6665 17.482L10.6665 13.3334L10.6731 13.0672Z" clip-rule="evenodd" fill-opacity="1.000000" fill-rule="evenodd"/>
</svg>
