<svg width="32.000000" height="32.000000" viewBox="0 0 28 32" fill="#000000" xmlns="http://www.w3.org/2000/svg" xmlns:xlink="http://www.w3.org/1999/xlink">
	<rect id="ic32-settings" width="32.000000" height="32.000000" fill="#FFFFFF" fill-opacity="0"/>
	<path id="Icon" d="M14.5298 2.66933L17.3599 2.66919C17.4453 2.67316 17.5205 2.68295 17.626 2.70592C18.3999 2.87445 18.6943 3.15234 19.4146 4.85431L19.5322 5.13507L19.9849 6.25665L20.022 6.27194L20.605 6.00793C21.8755 5.43994 22.5303 5.2007 22.9702 5.13394L23.0615 5.12222L23.2275 5.11325C23.624 5.11325 24.0278 5.25366 24.3369 5.49814L24.4829 5.62888L26.2925 7.4306L26.418 7.56354C26.9863 8.18958 27.0396 8.63341 26.4106 10.251L26.2017 10.7728L25.7085 11.9394L25.7178 11.9622L26.8472 12.384L27.3921 12.5992C28.7983 13.1743 29.0874 13.4808 29.2754 14.1848C29.3135 14.3268 29.3271 14.4235 29.3311 14.5436L29.333 14.674L29.333 17.2176C29.333 17.3984 29.3271 17.5005 29.2827 17.6792C29.0952 18.4309 28.8174 18.7171 27.127 19.4311L26.8481 19.5475L25.7344 19.997L25.7266 20.0157L26.1294 20.8956C27.1309 23.1216 27.166 23.6096 26.5078 24.3427L26.4253 24.4319L24.5684 26.2878C24.2358 26.6239 23.7622 26.8089 23.3037 26.8089C22.9146 26.8089 22.3032 26.6239 21.2612 26.206L20.7031 25.9774L20.0679 25.7087L20.0312 25.7237L19.7031 26.6044C18.8989 28.7225 18.6235 29.0664 17.7979 29.2795C17.6758 29.311 17.5884 29.3244 17.4893 29.3299L17.3257 29.3333L14.7808 29.3333C14.6216 29.3333 14.5322 29.3286 14.3745 29.2944C13.6006 29.1266 13.3052 28.8481 12.5835 27.1451L12.4658 26.8642L12.0127 25.7421L11.9775 25.7277L11.1309 26.1085C9.77588 26.7049 9.18896 26.8864 8.77051 26.8864C8.37891 26.8864 7.97998 26.7488 7.6626 26.502L7.51123 26.3697L5.70459 24.5652L5.49805 24.3402C5.00244 23.7573 4.97803 23.3052 5.58643 21.7492L5.90332 20.9703L6.29004 20.0609L6.28223 20.0413L5.40625 19.715C3.64941 19.0482 3.10791 18.7411 2.85059 18.1805L2.78076 18.0041L2.72266 17.8087C2.68994 17.6839 2.67578 17.5944 2.66992 17.4926L2.6665 17.3247L2.6665 14.7796C2.6665 14.5973 2.67285 14.4943 2.71826 14.3141C2.88721 13.6421 3.12744 13.3436 4.39258 12.7768L4.9165 12.5504L6.26318 12.006L6.27197 11.9836L5.76904 10.873C4.93848 8.98654 4.86963 8.41216 5.39355 7.77061L5.46533 7.68645L5.63477 7.5065L7.43457 5.71085C7.76465 5.37927 8.23633 5.19235 8.69531 5.19235C9.02344 5.19235 9.50586 5.32228 10.2773 5.61453L11.0537 5.92227L11.9336 6.29109L11.9697 6.27609L12.3003 5.38966C13.1118 3.25635 13.4014 2.89958 14.2573 2.70798C14.3652 2.68382 14.4424 2.67351 14.5298 2.66933ZM15.2104 5.33334L16.6973 5.33334L16.8882 5.75084L17.0439 6.1127L17.3252 6.79309L17.7134 7.76428L17.7783 7.90439C17.9238 8.17546 18.1592 8.38953 18.4468 8.50764L19.5444 8.95894L19.7188 9.01685C20.0132 9.09282 20.3271 9.06613 20.6069 8.93787L21.8374 8.37978L22.0723 8.27692C22.2979 8.1788 22.4966 8.09477 22.6704 8.02397L22.9844 7.89977L24.0386 8.94962L23.8804 9.3783L23.7349 9.74515C23.6538 9.94576 23.5601 10.1727 23.4526 10.4287L23.0386 11.3965L22.9785 11.5647C22.8984 11.8499 22.9146 12.1555 23.0283 12.4327L23.4746 13.5191L23.5439 13.6631C23.6992 13.9409 23.9497 14.1558 24.252 14.2659L25.6816 14.7981L26.248 15.0223L26.6665 15.2008L26.6665 16.7062L26.2495 16.8971L26.0771 16.972L25.4502 17.2349L24.2217 17.7286L24.083 17.7936C23.8145 17.9388 23.6025 18.1728 23.4849 18.4579L23.0391 19.5385L22.9805 19.7132C22.9043 20.009 22.9312 20.3243 23.0605 20.6052L23.6001 21.7817L23.9053 22.4771L24.1084 22.9787L23.0537 24.0318L22.7822 23.9335L22.3706 23.7748L21.6187 23.4686L20.5889 23.0317L20.4224 22.975C20.1406 22.8994 19.8403 22.9177 19.5679 23.0302L18.4741 23.4816L18.332 23.5502C18.0581 23.7032 17.8457 23.949 17.7344 24.2458L17.2827 25.4566L17.0054 26.1647L16.7925 26.6667L15.3013 26.6667L15.1792 26.4045L14.9541 25.8875L14.5649 24.9414L14.2915 24.2516L14.2275 24.1088C14.083 23.8325 13.8457 23.6138 13.5542 23.4936L12.4561 23.0401L12.3037 22.9878C11.9951 22.9021 11.6641 22.9299 11.3721 23.0694L10.6743 23.3907L9.70654 23.8175C9.56836 23.8764 9.44189 23.9292 9.32617 23.9763L9.0127 24.1003L7.95898 23.048L8.11719 22.6219L8.44238 21.8194L8.96045 20.603L9.02051 20.4343C9.10156 20.1482 9.08447 19.8415 8.96973 19.5637L8.52344 18.4816L8.45361 18.3376C8.29736 18.0598 8.0459 17.8453 7.74316 17.736L6.54102 17.2896L6.04639 17.0977C5.89746 17.0387 5.76465 16.9847 5.646 16.9352L5.33301 16.7996L5.33301 15.2927L5.59473 15.1716L6.31934 14.8609L7.76953 14.278L7.90967 14.2131C8.18066 14.0679 8.39502 13.8325 8.51318 13.5451L8.95996 12.4599L9.01807 12.2855C9.09424 11.9902 9.06689 11.6756 8.93799 11.3952L8.39941 10.2177L8.18457 9.7307C8.12109 9.58377 8.06543 9.45186 8.01709 9.33389L7.89307 9.02069L8.94629 7.96947L9.41553 8.14259L10.1133 8.42091L11.4058 8.96555L11.5737 9.024C11.8584 9.10214 12.1631 9.08394 12.439 8.96919L13.5308 8.51472L13.6714 8.4463C13.9429 8.29387 14.1543 8.05016 14.2656 7.75592L14.73 6.51308C14.8315 6.24823 14.9214 6.02005 15.001 5.82471L15.2104 5.33334ZM16.0005 10.6667C18.9419 10.6667 21.333 13.0574 21.333 15.9989C21.333 18.9405 18.9419 21.3333 16.0005 21.3333C13.0581 21.3333 10.6665 18.9409 10.6665 15.9989C10.6665 13.0569 13.0581 10.6667 16.0005 10.6667ZM13.333 15.9988C13.333 14.53 14.5308 13.3333 16.0005 13.3333C17.4692 13.3333 18.6665 14.5302 18.6665 15.9988C18.6665 17.4681 17.4688 18.6667 16.0005 18.6667C14.5312 18.6667 13.333 17.4683 13.333 15.9988Z" clip-rule="evenodd" fill-opacity="1.000000" fill-rule="evenodd"/>
</svg>
