<svg width="24.000000" height="24.000000" viewBox="0 0 24 24" fill="#000000" xmlns="http://www.w3.org/2000/svg" xmlns:xlink="http://www.w3.org/1999/xlink">
	<path id="Icon" d="M13.41 12L18.7 6.7C19.09 6.31 19.09 5.68 18.7 5.29C18.31 4.9 17.68 4.9 17.29 5.29L12 10.58L6.7 5.29C6.31 4.9 5.68 4.9 5.29 5.29C4.9 5.68 4.9 6.31 5.29 6.7L10.58 12L5.29 17.29C4.9 17.68 4.9 18.31 5.29 18.7C5.48 18.9 5.74 19 6 19C6.25 19 6.51 18.9 6.7 18.7L12 13.41L17.29 18.7C17.48 18.9 17.74 19 18 19C18.25 19 18.51 18.9 18.7 18.7C19.09 18.31 19.09 17.68 18.7 17.29L13.41 12Z" fill-opacity="1.000000" fill-rule="evenodd"/>
</svg>
