<svg width="38.000000" height="16.000000" viewBox="0 0 27 20" fill="none" xmlns="http://www.w3.org/2000/svg" xmlns:xlink="http://www.w3.org/1999/xlink">
	<defs>
		<clipPath id="clip59_31250">
			<rect id="Icons Flag 20px az" width="26.666666" height="20.000000" fill="white" fill-opacity="0"/>
		</clipPath>
	</defs>
	<rect id="Icons Flag 20px az" width="26.666666" height="20.000000" fill="#FFFFFF" fill-opacity="0"/>
	<g clip-path="url(#clip59_31250)">
		<path id="Vector" d="M0 0L26.67 0L26.67 20L0 20L0 0Z" fill="#3F9C35" fill-opacity="1.000000" fill-rule="nonzero"/>
		<path id="Vector" d="M0 0L26.67 0L26.67 13.33L0 13.33L0 0Z" fill="#ED2939" fill-opacity="1.000000" fill-rule="nonzero"/>
		<path id="Vector" d="M0 0L26.67 0L26.67 6.66L0 6.66L0 0Z" fill="#00B9E4" fill-opacity="1.000000" fill-rule="nonzero"/>
		<path id="Vector" d="M15.66 10C15.66 11.65 14.32 13 12.66 13C11 13 9.66 11.65 9.66 10C9.66 8.34 11 7 12.66 7C14.32 7 15.66 8.34 15.66 10Z" fill="#FFFFFF" fill-opacity="1.000000" fill-rule="evenodd"/>
		<path id="Vector" d="M15.83 10C15.83 11.38 14.71 12.5 13.33 12.5C11.95 12.5 10.83 11.38 10.83 10C10.83 8.61 11.95 7.5 13.33 7.5C14.71 7.5 15.83 8.61 15.83 10Z" fill="#ED2939" fill-opacity="1.000000" fill-rule="evenodd"/>
		<path id="Vector" d="M16 8.33L16.32 9.22L17.17 8.82L16.77 9.68L17.66 10L16.77 10.32L17.17 11.17L16.32 10.77L16 11.66L15.67 10.77L14.82 11.17L15.22 10.32L14.33 10L15.22 9.67L14.82 8.82L15.67 9.22L16 8.33Z" fill="#FFFFFF" fill-opacity="1.000000" fill-rule="nonzero"/>
	</g>
</svg>
