<svg width="38.000000" height="16.000000" viewBox="0 0 27 20" fill="none" xmlns="http://www.w3.org/2000/svg" xmlns:xlink="http://www.w3.org/1999/xlink">
	<defs>
		<clipPath id="clip59_31252">
			<rect id="Icons Flag 20px cn" width="26.666666" height="20.000000" fill="white" fill-opacity="0"/>
		</clipPath>
	</defs>
	<rect id="Icons Flag 20px cn" width="26.666666" height="20.000000" fill="#FFFFFF" fill-opacity="0"/>
	<g clip-path="url(#clip59_31252)">
		<path id="Vector" d="M0 0L26.66 0L26.66 20L0 20L0 0Z" fill="#DE2910" fill-opacity="1.000000" fill-rule="nonzero"/>
		<path id="Vector" d="M3.19 7.39L5 2L6.8 7.39L2 4.1L8 4.1L3.19 7.39Z" fill="#FFDE00" fill-opacity="1.000000" fill-rule="nonzero"/>
		<path id="Vector" d="M11 2.1L9.15 2.51L10.39 1.07L10.26 3.01L9.24 1.29L11 2.1Z" fill="#FFDE00" fill-opacity="1.000000" fill-rule="nonzero"/>
		<path id="Vector" d="M12.87 4.47L11.01 4.13L12.7 3.28L11.84 5.02L11.56 3.04L12.87 4.47Z" fill="#FFDE00" fill-opacity="1.000000" fill-rule="nonzero"/>
		<path id="Vector" d="M12.6 7.79L11.03 6.72L12.93 6.64L11.43 7.87L11.98 5.95L12.6 7.79Z" fill="#FFDE00" fill-opacity="1.000000" fill-rule="nonzero"/>
		<path id="Vector" d="M10.24 9.96L9.21 8.37L10.99 9.03L9.14 9.59L10.39 8.03L10.24 9.96Z" fill="#FFDE00" fill-opacity="1.000000" fill-rule="nonzero"/>
	</g>
</svg>
