<svg width="38.000000" height="16.000000" viewBox="0 0 20 20" fill="none" xmlns="http://www.w3.org/2000/svg" xmlns:xlink="http://www.w3.org/1999/xlink">
	<defs>
		<clipPath id="clip73_17722">
			<rect id="Frame 4" width="20.000000" height="20.000000" fill="white" fill-opacity="0"/>
		</clipPath>
		<clipPath id="clip59_31263">
			<rect id="Icons Flag 20px us" width="20.000000" height="20.000000" fill="white" fill-opacity="0"/>
		</clipPath>
	</defs>
	<rect id="Icons Flag 20px us" width="20.000000" height="20.000000" fill="#FFFFFF" fill-opacity="0"/>
	<g clip-path="url(#clip59_31263)">
		<rect id="Frame 4" width="20.000000" height="20.000000" fill="#FFFFFF" fill-opacity="0"/>
		<g clip-path="url(#clip73_17722)">
			<path id="Vector" d="M-4 0L34 0L34 1.53L-4 1.53L-4 0ZM-4 3.07L34 3.07L34 4.61L-4 4.61L-4 3.07ZM-4 6.15L34 6.15L34 7.69L-4 7.69L-4 6.15ZM-4 9.23L34 9.23L34 10.76L-4 10.76L-4 9.23ZM-4 12.3L34 12.3L34 13.84L-4 13.84L-4 12.3ZM-4 15.38L34 15.38L34 16.92L-4 16.92L-4 15.38ZM-4 18.46L34 18.46L34 20L-4 20L-4 18.46Z" fill="#BD3D44" fill-opacity="1.000000" fill-rule="evenodd"/>
			<path id="Vector" d="M-4 1.53L34 1.53L34 3.07L-4 3.07L-4 1.53ZM-4 4.61L34 4.61L34 6.15L-4 6.15L-4 4.61ZM-4 7.69L34 7.69L34 9.23L-4 9.23L-4 7.69ZM-4 10.76L34 10.76L34 12.3L-4 12.3L-4 10.76ZM-4 13.84L34 13.84L34 15.38L-4 15.38L-4 13.84ZM-4 16.92L34 16.92L34 18.46L-4 18.46L-4 16.92Z" fill="#FFFFFF" fill-opacity="1.000000" fill-rule="evenodd"/>
			<path id="Vector" d="M-4 0L11.19 0L11.19 10.76L-4 10.76L-4 0Z" fill="#192F5D" fill-opacity="1.000000" fill-rule="evenodd"/>
			<path id="Vector" d="M-2.74 0.46L-2.6 0.88L-2.15 0.88L-2.51 1.14L-2.38 1.57L-2.74 1.31L-3.1 1.57L-2.96 1.14L-3.33 0.88L-2.87 0.88L-2.74 0.46ZM-0.2 0.46L-0.07 0.88L0.38 0.88L0.02 1.14L0.16 1.57L-0.2 1.31L-0.57 1.57L-0.43 1.14L-0.79 0.88L-0.34 0.88L-0.2 0.46ZM2.33 0.46L2.47 0.88L2.91 0.88L2.55 1.14L2.69 1.57L2.32 1.31L1.96 1.57L2.1 1.14L1.74 0.88L2.19 0.88L2.33 0.46ZM4.86 0.46L5 0.88L5.45 0.88L5.08 1.14L5.23 1.57L4.86 1.31L4.5 1.57L4.64 1.14L4.28 0.88L4.72 0.88L4.86 0.46ZM7.39 0.46L7.53 0.88L7.98 0.88L7.62 1.14L7.76 1.57L7.39 1.31L7.03 1.57L7.17 1.14L6.81 0.88L7.26 0.88L7.39 0.46ZM9.93 0.46L10.07 0.88L10.51 0.88L10.15 1.14L10.29 1.57L9.93 1.31L9.57 1.57L9.71 1.14L9.34 0.88L9.79 0.88L9.93 0.46ZM-1.47 1.53L-1.33 1.96L-0.88 1.96L-1.25 2.22L-1.11 2.65L-1.47 2.39L-1.83 2.65L-1.7 2.22L-2.05 1.96L-1.61 1.96L-1.47 1.53ZM1.06 1.53L1.2 1.96L1.65 1.96L1.28 2.22L1.42 2.65L1.06 2.39L0.7 2.65L0.84 2.22L0.48 1.96L0.92 1.96L1.06 1.53ZM3.6 1.53L3.73 1.96L4.18 1.96L3.82 2.22L3.96 2.65L3.6 2.39L3.23 2.65L3.37 2.22L3.01 1.96L3.46 1.96L3.6 1.53ZM6.13 1.53L6.27 1.96L6.71 1.96L6.35 2.22L6.49 2.65L6.13 2.39L5.77 2.65L5.91 2.22L5.54 1.96L6 1.96L6.13 1.53ZM8.66 1.53L8.8 1.96L9.25 1.96L8.89 2.22L9.02 2.65L8.66 2.39L8.3 2.65L8.44 2.22L8.08 1.96L8.52 1.96L8.66 1.53ZM-2.74 2.61L-2.6 3.04L-2.15 3.04L-2.51 3.3L-2.38 3.73L-2.74 3.46L-3.1 3.73L-2.96 3.3L-3.33 3.04L-2.87 3.04L-2.74 2.61ZM-0.2 2.61L-0.07 3.04L0.38 3.04L0.02 3.3L0.16 3.73L-0.2 3.46L-0.57 3.73L-0.43 3.3L-0.79 3.03L-0.34 3.03L-0.2 2.61ZM2.33 2.61L2.47 3.04L2.91 3.04L2.55 3.3L2.69 3.73L2.32 3.46L1.96 3.73L2.1 3.3L1.74 3.03L2.19 3.03L2.33 2.61ZM4.86 2.61L5 3.04L5.45 3.04L5.08 3.3L5.23 3.73L4.86 3.46L4.5 3.73L4.64 3.3L4.28 3.03L4.72 3.03L4.86 2.61ZM7.39 2.61L7.53 3.04L7.98 3.04L7.62 3.3L7.76 3.73L7.39 3.46L7.03 3.73L7.17 3.3L6.81 3.03L7.26 3.03L7.39 2.61ZM9.93 2.61L10.07 3.04L10.51 3.04L10.15 3.3L10.29 3.73L9.93 3.46L9.57 3.73L9.71 3.3L9.34 3.03L9.79 3.03L9.93 2.61ZM-1.47 3.69L-1.33 4.11L-0.88 4.11L-1.25 4.37L-1.11 4.8L-1.47 4.54L-1.83 4.8L-1.7 4.37L-2.06 4.11L-1.61 4.11L-1.47 3.69ZM1.06 3.69L1.2 4.11L1.65 4.11L1.28 4.37L1.42 4.8L1.06 4.54L0.7 4.8L0.84 4.37L0.48 4.11L0.92 4.11L1.06 3.69ZM3.6 3.69L3.73 4.11L4.18 4.11L3.82 4.37L3.96 4.8L3.6 4.54L3.23 4.8L3.37 4.37L3.01 4.11L3.46 4.11L3.6 3.69ZM6.13 3.69L6.27 4.11L6.71 4.11L6.35 4.37L6.49 4.8L6.13 4.54L5.77 4.8L5.91 4.37L5.54 4.11L6 4.11L6.13 3.69ZM8.66 3.69L8.8 4.11L9.25 4.11L8.89 4.37L9.02 4.8L8.66 4.54L8.3 4.8L8.44 4.37L8.08 4.11L8.52 4.11L8.66 3.69ZM-2.74 4.76L-2.6 5.19L-2.15 5.19L-2.51 5.45L-2.38 5.88L-2.74 5.62L-3.1 5.88L-2.96 5.45L-3.33 5.19L-2.87 5.19L-2.74 4.76ZM-0.2 4.76L-0.07 5.19L0.38 5.19L0.02 5.45L0.16 5.88L-0.2 5.62L-0.57 5.88L-0.43 5.45L-0.79 5.19L-0.34 5.19L-0.2 4.76ZM2.33 4.76L2.47 5.19L2.91 5.19L2.55 5.45L2.69 5.88L2.32 5.62L1.96 5.88L2.1 5.45L1.74 5.19L2.19 5.19L2.33 4.76ZM4.86 4.76L5 5.19L5.45 5.19L5.08 5.45L5.23 5.88L4.86 5.62L4.5 5.88L4.64 5.45L4.28 5.19L4.72 5.19L4.86 4.76ZM7.39 4.76L7.53 5.19L7.98 5.19L7.62 5.45L7.76 5.88L7.39 5.62L7.03 5.88L7.17 5.45L6.81 5.19L7.26 5.19L7.39 4.76ZM9.93 4.76L10.07 5.19L10.51 5.19L10.15 5.45L10.29 5.88L9.93 5.62L9.57 5.88L9.71 5.45L9.34 5.19L9.79 5.19L9.93 4.76ZM-1.47 5.84L-1.33 6.27L-0.88 6.27L-1.25 6.53L-1.11 6.96L-1.47 6.69L-1.83 6.96L-1.7 6.53L-2.06 6.26L-1.61 6.26L-1.47 5.84ZM1.06 5.84L1.2 6.27L1.65 6.27L1.28 6.53L1.42 6.96L1.06 6.69L0.7 6.96L0.84 6.53L0.48 6.26L0.92 6.26L1.06 5.84ZM3.6 5.84L3.73 6.27L4.18 6.27L3.82 6.53L3.96 6.96L3.6 6.69L3.23 6.96L3.37 6.53L3.01 6.26L3.46 6.26L3.6 5.84ZM6.13 5.84L6.27 6.27L6.71 6.27L6.35 6.53L6.49 6.96L6.13 6.69L5.77 6.96L5.91 6.53L5.54 6.26L6 6.26L6.13 5.84ZM8.66 5.84L8.8 6.27L9.25 6.27L8.89 6.53L9.02 6.96L8.66 6.69L8.3 6.96L8.44 6.53L8.08 6.26L8.52 6.26L8.66 5.84ZM-2.74 6.92L-2.6 7.35L-2.15 7.35L-2.51 7.61L-2.38 8.03L-2.74 7.77L-3.1 8.03L-2.96 7.6L-3.33 7.34L-2.87 7.34L-2.74 6.92ZM-0.2 6.92L-0.07 7.35L0.38 7.35L0.02 7.61L0.16 8.03L-0.2 7.77L-0.57 8.03L-0.43 7.6L-0.79 7.34L-0.34 7.34L-0.2 6.92ZM2.33 6.92L2.47 7.35L2.91 7.35L2.55 7.61L2.69 8.03L2.32 7.77L1.96 8.03L2.1 7.6L1.74 7.34L2.19 7.34L2.33 6.92ZM4.86 6.92L5 7.35L5.45 7.35L5.08 7.61L5.23 8.03L4.86 7.77L4.5 8.03L4.64 7.6L4.28 7.34L4.72 7.34L4.86 6.92ZM7.39 6.92L7.53 7.35L7.98 7.35L7.62 7.61L7.76 8.03L7.39 7.77L7.03 8.03L7.17 7.6L6.81 7.34L7.26 7.34L7.39 6.92ZM9.93 6.92L10.07 7.35L10.51 7.35L10.15 7.61L10.29 8.03L9.93 7.77L9.57 8.03L9.71 7.6L9.34 7.34L9.79 7.34L9.93 6.92ZM-1.47 8L-1.33 8.42L-0.88 8.42L-1.25 8.68L-1.11 9.11L-1.47 8.85L-1.83 9.11L-1.7 8.68L-2.06 8.42L-1.61 8.42L-1.47 8ZM1.06 8L1.2 8.42L1.65 8.42L1.28 8.68L1.42 9.11L1.06 8.85L0.7 9.11L0.84 8.68L0.48 8.42L0.92 8.42L1.06 8ZM3.6 8L3.73 8.42L4.18 8.42L3.82 8.68L3.96 9.11L3.6 8.85L3.23 9.11L3.37 8.68L3.01 8.42L3.46 8.42L3.6 8ZM6.13 8L6.27 8.42L6.71 8.42L6.35 8.68L6.49 9.11L6.13 8.85L5.77 9.11L5.91 8.68L5.54 8.42L6 8.42L6.13 8ZM8.66 8L8.8 8.42L9.25 8.42L8.89 8.68L9.02 9.11L8.66 8.85L8.3 9.11L8.44 8.68L8.08 8.42L8.52 8.42L8.66 8ZM-2.74 9.07L-2.6 9.5L-2.15 9.5L-2.51 9.76L-2.38 10.19L-2.74 9.92L-3.1 10.19L-2.96 9.76L-3.33 9.5L-2.87 9.5L-2.74 9.07ZM-0.2 9.07L-0.07 9.5L0.38 9.5L0.02 9.76L0.16 10.19L-0.2 9.92L-0.57 10.19L-0.43 9.76L-0.79 9.5L-0.34 9.5L-0.2 9.07ZM2.33 9.07L2.47 9.5L2.91 9.5L2.56 9.76L2.69 10.19L2.33 9.92L1.97 10.19L2.11 9.76L1.75 9.5L2.19 9.5L2.33 9.07ZM4.86 9.07L5 9.5L5.45 9.5L5.08 9.76L5.23 10.19L4.86 9.92L4.5 10.19L4.64 9.76L4.28 9.5L4.72 9.5L4.86 9.07ZM7.39 9.07L7.53 9.5L7.98 9.5L7.62 9.76L7.76 10.19L7.39 9.92L7.03 10.19L7.17 9.76L6.81 9.5L7.26 9.5L7.39 9.07ZM9.93 9.07L10.07 9.5L10.51 9.5L10.15 9.76L10.29 10.19L9.93 9.92L9.57 10.19L9.71 9.76L9.34 9.5L9.79 9.5L9.93 9.07Z" fill="#FFFFFF" fill-opacity="1.000000" fill-rule="evenodd"/>
		</g>
	</g>
</svg>
