<svg width="32.000000" height="32.000000" viewBox="0 0 28 32" fill="#000000" xmlns="http://www.w3.org/2000/svg" xmlns:xlink="http://www.w3.org/1999/xlink">
	<path id="Icon" d="M5.12939 17.6541L16 27.9995L26.8708 17.6541C28.4587 16.1435 29.3335 14.1315 29.3335 11.9888C29.3335 9.84613 28.4587 7.83414 26.8708 6.32214C23.9106 3.50479 19.2642 3.25146 16 5.55814C12.7361 3.25146 8.08936 3.50479 5.12939 6.32214C3.5415 7.83414 2.66675 9.84613 2.66675 11.9888C2.66675 14.1315 3.5415 16.1435 5.12939 17.6541ZM11.0293 6.60345C9.56543 6.60345 8.10278 7.13281 6.98804 8.19281C5.92139 9.2088 5.3335 10.5568 5.3335 11.9888C5.3335 13.4195 5.92139 14.7675 6.98804 15.7835L16 24.3595L25.012 15.7835C26.0789 14.7675 26.6667 13.4195 26.6667 11.9888C26.6667 10.5581 26.0789 9.2088 25.012 8.19281C22.7842 6.07278 19.1575 6.07278 16.9294 8.19281L16 9.07812L15.0708 8.19281C13.9561 7.13281 12.4934 6.60345 11.0293 6.60345Z" clip-rule="evenodd" fill-opacity="1.000000" fill-rule="evenodd"/>
</svg>
