<svg viewBox="0 0 32 32" fill="#000000" xmlns="http://www.w3.org/2000/svg" xmlns:xlink="http://www.w3.org/1999/xlink">
	<path id="Icon" d="M29.333 8.00008C29.333 7.2637 28.7363 6.66675 28 6.66675L4 6.66675C3.26367 6.66675 2.6665 7.2637 2.6665 8.00008C2.6665 8.73646 3.26367 9.33341 4 9.33341L28 9.33341C28.7363 9.33341 29.333 8.73646 29.333 8.00008ZM28 14.6667C28.7363 14.6667 29.333 15.2637 29.333 16.0001C29.333 16.7365 28.7363 17.3334 28 17.3334L4 17.3334C3.26367 17.3334 2.6665 16.7365 2.6665 16.0001C2.6665 15.2637 3.26367 14.6667 4 14.6667L28 14.6667ZM28 22.6667C28.7363 22.6667 29.333 23.2637 29.333 24.0001C29.333 24.7365 28.7363 25.3334 28 25.3334L4 25.3334C3.26367 25.3334 2.6665 24.7365 2.6665 24.0001C2.6665 23.2637 3.26367 22.6667 4 22.6667L28 22.6667Z" clip-rule="evenodd"  fill-opacity="1.000000" fill-rule="evenodd"/>
</svg>
