<svg width="27.000000" height="27.000000" viewBox="0 0 27 27" fill="#000000" xmlns="http://www.w3.org/2000/svg" xmlns:xlink="http://www.w3.org/1999/xlink">
	<path id="Icon" d="M11.6665 -0.333374C18.2939 -0.333374 23.6665 5.03922 23.6665 11.6666C23.6665 14.4997 22.6846 17.1034 21.043 19.1562L25.9429 24.0571C26.4634 24.5779 26.4634 25.4221 25.9429 25.9428C25.4619 26.4234 24.7056 26.4604 24.1826 26.0537L24.0571 25.9428L19.1562 21.043C17.1035 22.6849 14.4995 23.6666 11.6665 23.6666C5.03906 23.6666 -0.333496 18.294 -0.333496 11.6666C-0.333496 5.03922 5.03906 -0.333374 11.6665 -0.333374ZM2.33301 11.6666C2.33301 6.51196 6.51172 2.3333 11.6665 2.3333C16.8213 2.3333 21 6.51196 21 11.6666C21 16.8213 16.8213 21 11.6665 21C6.51172 21 2.33301 16.8213 2.33301 11.6666Z" clip-rule="evenodd" fill-opacity="1.000000" fill-rule="evenodd"/>
</svg>
